<svg width="22" height="23" viewBox="0 0 22 23" fill="none" xmlns="http://www.w3.org/2000/svg">
<path d="M21.9761 11.7315C21.9692 11.7026 21.9733 11.6717 21.9623 11.6435C21.9582 11.6318 21.9479 11.6256 21.9437 11.6146C21.9369 11.5981 21.9382 11.5796 21.9293 11.5637C19.9356 7.74743 15.5954 5.01324 11.0166 5.01324C6.43718 5.01324 2.09768 7.74331 0.102551 11.5589C0.0936133 11.5747 0.0949883 11.5933 0.0881133 11.6098C0.0833008 11.6208 0.0736758 11.627 0.0695508 11.6387C0.0585508 11.6669 0.0626758 11.6978 0.0558008 11.7267C0.0434258 11.7782 0.0317383 11.8277 0.0317383 11.8807C0.0317383 11.9336 0.0441133 11.9824 0.0558008 12.0347C0.0626758 12.0636 0.0585508 12.0945 0.0695508 12.1227C0.0736758 12.1344 0.0839883 12.1406 0.0881133 12.1516C0.0949883 12.1681 0.0936133 12.1866 0.102551 12.2024C2.09699 16.0187 6.43718 18.7529 11.0166 18.7529C15.5954 18.7529 19.9356 16.0229 21.9293 12.2072C21.9389 12.1914 21.9376 12.1729 21.9437 12.1564C21.9479 12.1454 21.9582 12.1392 21.9623 12.1275C21.9733 12.0993 21.9692 12.0684 21.9761 12.0395C21.9877 11.9872 22.0001 11.9377 22.0001 11.8855C22.0001 11.8332 21.9877 11.7831 21.9761 11.7315ZM11.0159 17.3772C7.15562 17.3772 3.37643 15.1834 1.49336 11.8807C3.38674 8.57381 7.16043 6.38756 11.0159 6.38756C14.8749 6.38756 18.6547 8.58206 20.5378 11.8841C18.6444 15.1917 14.8714 17.3772 11.0159 17.3772Z" fill="black"/>
<path d="M11.016 9.1348C11.0146 9.1348 11.0132 9.13548 11.0118 9.13548C9.4959 9.13823 8.26733 10.3668 8.26733 11.8827C8.26733 12.0725 8.42133 12.2265 8.61108 12.2265C8.80015 12.2265 8.95415 12.0725 8.95415 11.8827C8.95415 10.747 9.87883 9.8223 11.016 9.8223V9.82161C11.205 9.82161 11.3583 9.66761 11.3583 9.47855C11.3583 9.28811 11.2057 9.1348 11.016 9.1348Z" fill="black"/>
<path d="M11 7.073C8.34144 7.073 6.1875 9.22762 6.1875 11.8855C6.1875 14.5434 8.34213 16.698 11 16.698C13.6572 16.698 15.8125 14.5427 15.8125 11.8855C15.8125 9.22694 13.6572 7.073 11 7.073ZM11 16.0105C8.72506 16.0105 6.875 14.1604 6.875 11.8855C6.875 9.61056 8.72506 7.7605 11 7.7605C13.2749 7.7605 15.125 9.61056 15.125 11.8855C15.125 14.1604 13.2749 16.0105 11 16.0105Z" fill="black"/>
</svg>
